/* XPM */
static char *icon_xpm[] = {
"32 32 288 2",
"AA	c #F8FEFE",
"BA	c #F9FFFE",
"CA	c #FAFFFF",
"DA	c #FCFFFF",
"EA	c #F5FAFC",
"FA	c #EBEEF5",
"GA	c #F9FFFF",
"HA	c #FBFFFF",
"IA	c #F7FDFE",
"JA	c #F8FFFE",
"KA	c #D5D2E6",
"LA	c #8564B6",
"MA	c #A999CA",
"NA	c #F1F5F9",
"OA	c #C6C0DC",
"PA	c #9D89C3",
"QA	c #8C6EB9",
"RA	c #9E89C3",
"SA	c #DCDBEB",
"TA	c #FDFFFF",
"UA	c #D7D5E7",
"VA	c #967DBF",
"WA	c #5D04A2",
"XA	c #4F009D",
"YA	c #CCC7E0",
"ZA	c #DAD9EA",
"aA	c #7C55B1",
"bA	c #4C009B",
"cA	c #53009E",
"dA	c #5700A0",
"eA	c #5800A0",
"fA	c #6625A6",
"gA	c #E0E0ED",
"hA	c #EFF2F8",
"iA	c #CAC5DF",
"jA	c #8C6FB9",
"kA	c #51009D",
"lA	c #6420A5",
"mA	c #682AA7",
"nA	c #E6E7F1",
"oA	c #E2E2EF",
"pA	c #631CA5",
"qA	c #C8C2DE",
"rA	c #DEDDEC",
"sA	c #9074BB",
"tA	c #5F10A3",
"uA	c #57009F",
"vA	c #AA9ACA",
"wA	c #CCC6E0",
"xA	c #6A2FA8",
"yA	c #6729A7",
"zA	c #A998CA",
"0A	c #8A6CB8",
"1A	c #A390C6",
"2A	c #4D009C",
"3A	c #9983C1",
"4A	c #FFFFFF",
"5A	c #D6D3E6",
"6A	c #5B00A1",
"7A	c #9B86C2",
"8A	c #EDF0F6",
"9A	c #ECEEF5",
"+A	c #F7FCFD",
"/A	c #8463B5",
"AB	c #52009E",
"BB	c #A897C9",
"CB	c #F6FCFD",
"DB	c #825EB4",
"EB	c #9279BD",
"FB	c #F9FEFF",
"GB	c #DBDAEA",
"HB	c #5E09A3",
"IB	c #B0A2CE",
"JB	c #E1E1EE",
"KB	c #631BA5",
"LB	c #F9FEFE",
"MB	c #B3A6D0",
"NB	c #8665B6",
"OB	c #8563B5",
"PB	c #BCB2D6",
"QB	c #5D06A2",
"RB	c #DBD9EA",
"SB	c #F8FDFE",
"TB	c #C3BBDA",
"UB	c #56009F",
"VB	c #641FA5",
"WB	c #E9EBF3",
"XB	c #7446AD",
"YB	c #A594C8",
"ZB	c #55009F",
"aB	c #7D56B1",
"bB	c #F2F7FA",
"cB	c #F0F4F9",
"dB	c #8B6DB8",
"eB	c #794FAF",
"fB	c #EEF2F7",
"gB	c #8D70BA",
"hB	c #4B009B",
"iB	c #AB9BCB",
"jB	c #5F0EA3",
"kB	c #BEB4D7",
"lB	c #8767B7",
"mB	c #B3A7D0",
"nB	c #D8D6E8",
"oB	c #E8EAF3",
"pB	c #805BB3",
"qB	c #DDDDEC",
"rB	c #CAC4DF",
"sB	c #5900A0",
"tB	c #6F3BAA",
"uB	c #E5E7F1",
"vB	c #7B52B0",
"wB	c #C7BFDD",
"xB	c #F0F4F8",
"yB	c #7C54B0",
"zB	c #9379BD",
"0B	c #FEFFFF",
"1B	c #7343AC",
"2B	c #9076BC",
"3B	c #E6E8F2",
"4B	c #7A51B0",
"5B	c #5C02A1",
"6B	c #6B32A8",
"7B	c #9982C0",
"8B	c #AE9FCD",
"9B	c #C4BDDB",
"+B	c #D7D4E7",
"/B	c #977FBF",
"AC	c #50009D",
"BC	c #CFCBE2",
"CC	c #BBB1D6",
"DC	c #6728A6",
"EC	c #5F11A3",
"FC	c #5A00A1",
"GC	c #5D07A2",
"HC	c #5C02A2",
"IC	c #A694C8",
"JC	c #4A009B",
"KC	c #49009A",
"LC	c #48009A",
"MC	c #450099",
"NC	c #825FB4",
"OC	c #EFF3F8",
"PC	c #A493C7",
"QC	c #8869B7",
"RC	c #6E39AA",
"SC	c #5E08A2",
"TC	c #784CAF",
"UC	c #EDF1F7",
"VC	c #F4F9FB",
"WC	c #BFB7D7",
"XC	c #BDB5D6",
"YC	c #BFB7D8",
"ZC	c #C0B7D8",
"aC	c #BDB4D6",
"bC	c #A593C8",
"cC	c #BBB0D5",
"dC	c #EBEDF5",
"eC	c #D9D8E9",
"fC	c #B4A7D1",
"gC	c #DEDEEC",
"hC	c #BAB0D4",
"iC	c #E0E0EE",
"jC	c #6114A4",
"kC	c #F6FBFD",
"lC	c #F6FBFC",
"mC	c #F7FDFD",
"nC	c #C8C1DD",
"oC	c #B7ABD3",
"pC	c #E2E3EF",
"qC	c #7E59B2",
"rC	c #CBC5DF",
"sC	c #9F8BC4",
"tC	c #CDC8E1",
"uC	c #F1F5FA",
"vC	c #B2A5D0",
"wC	c #F4F8FB",
"xC	c #D6D4E7",
"yC	c #CEC9E1",
"zC	c #B6ABD2",
"0C	c #8C70B9",
"1C	c #A594C7",
"2C	c #B8ADD3",
"3C	c #D2CFE4",
"4C	c #692DA8",
"5C	c #8767B6",
"6C	c #8B6DB9",
"7C	c #F2F5FA",
"8C	c #A18EC5",
"9C	c #5D05A2",
"+C	c #54009F",
"/C	c #9981C1",
"AD	c #784DAE",
"BD	c #7444AC",
"CD	c #9880C0",
"DD	c #5C01A2",
"ED	c #A491C7",
"FD	c #8462B5",
"GD	c #6C35A9",
"HD	c #F0F3F8",
"ID	c #8B6EB8",
"JD	c #6522A5",
"KD	c #6A31A8",
"LD	c #947BBE",
"MD	c #A492C7",
"ND	c #EAECF4",
"OD	c #6215A4",
"PD	c #A797C9",
"QD	c #D1CDE4",
"RD	c #470099",
"SD	c #B5A9D1",
"TD	c #A18DC5",
"UD	c #9881C0",
"VD	c #A290C6",
"WD	c #9D87C3",
"XD	c #8461B5",
"YD	c #9A83C1",
"ZD	c #6014A3",
"aD	c #9176BC",
"bD	c #7950AF",
"cD	c #5D08A2",
"dD	c #7C54B1",
"eD	c #A08CC5",
"fD	c #5900A1",
"gD	c #B7ACD3",
"hD	c #AFA0CE",
"iD	c #F3F7FA",
"jD	c #957DBE",
"kD	c #F3F7FB",
"lD	c #B9AED4",
"mD	c #EEF1F7",
"nD	c #703EAB",
"oD	c #7A50AF",
"pD	c #F1F4F9",
"qD	c #C5BDDB",
"rD	c #47009A",
"sD	c #AFA1CD",
"tD	c #5C03A2",
"uD	c #5C00A2",
"vD	c #B2A4CF",
"wD	c #F3F8FB",
"xD	c #6A30A8",
"yD	c #F2F6FA",
"zD	c #4E009C",
"0D	c #9B85C1",
"1D	c #AC9DCC",
"2D	c #CFCAE2",
"3D	c #7547AD",
"4D	c #E5E6F1",
"5D	c #D3D0E5",
"6D	c #E9EBF4",
"7D	c #CBC6E0",
"8D	c #E6E7F2",
"9D	c #5B01A1",
"+D	c #9277BC",
"/D	c #6B30A8",
"AE	c #E4E5F0",
"BE	c #682BA7",
"CE	c #D3CFE5",
"DE	c #6216A4",
"EE	c #A695C8",
"FE	c #AEA0CD",
"GE	c #C6BFDC",
"HE	c #D1CDE3",
"IE	c #AD9ECC",
"JE	c #5D03A2",
"KE	c #E7E9F3",
"LE	c #E1E2EE",
"ME	c #5F0DA3",
"NE	c #6D38A9",
"OE	c #774AAE",
"PE	c #EAEDF4",
"QE	c #977EBF",
"RE	c #692DA7",
"SE	c #8868B7",
"TE	c #4F009C",
"UE	c #600FA4",
"VE	c #6319A5",
"WE	c #A796C9",
"XE	c #D9D7E9",
"YE	c #6D37A9",
"ZE	c #C1B9D9",
"aE	c #BCB2D5",
"bE	c #E7E9F2",
"cE	c #BDB3D6",
"dE	c #C2BADA",
"eE	c #D8D7E8",
"fE	c #ECEFF6",
"AAAAAAAAAAAAAAAAAAAAAAAABACAAAAAAAAAAAAAAAAAAAAAAAAAAAAAAAAAAAAA",
"AAAAAAAAAAAAAAAAAAAAAADAEAFAAAAAAAAAAAAAGADAHAIAHAHAAAAAAAAAAAAA",
"AAAAAAAAAAAAAAAAJADAGAKALAMADAAAAAAAAADANAOAPAQARASAHAAAAAAAAAAA",
"AAAAAAAAAAAAGATAIAUAVAWAXAYADAAAAAAAHAZAaAbAcAdAeAfAgAHAAAAAAAAA",
"AAAAAAAAAAJAhAiAjAkAeAlAmAnACAAAAAHAoAmApAqArAsAtAuAvADAAAAAAAAA",
"AAAAAAAAAACAwAxAyAzA0AeALAEABAAAAAHA1A2A3ATA4A5A6A6A7ACAAAAAAAAA",
"AAAAAAAAAAAAHA8A9A+A/AABBBDAAAAAJACBDB2AEBFBHAGBHBdAIBDAAAAAAAAA",
"AAAAAAAAAAAAAAGATAJBKBdAqATAAAAAAALBMBNBOBFA4APBeAQBRBHAAAAAAAAA",
"AAAAAAAAAAAAAASBTATBUBVBoAHAAAAAAAAACAIANABAWBXBkAYBGAAAAAAAAAAA",
"AAAAAAAAAAAAAAAAHARAZBaBbBGAAAAAAAAAAAAADAcBdB2A1AEAGAAAAAAAAAAA",
"AAAAAAAAAAAAAAGAcBeBUBRAHAAAAAAAAAAAAAHAfBgBhBiBIACAAAAAAAAAAAAA",
"AAAAAAAAAAAAAAHAGBjBuAkBTAAAAAAAAAAADAFAlBbAmBGAGAGAGAAAAAAAAAAA",
"AAAAAAAAAAAAAATAPBdAQBnBDAAAAAAAAADAoBpBkAPBCAAADAqBrBDAAAAAAAAA",
"AAAAAAAAAAAAAAGAVAsBtBFACAAAAAAADAuBvB6AwB4ATATAxByBzBCAAAAAAAAA",
"AAAAAAAAAAHA0BNA1BsB2BDADAHAGAHA3B4B5B6B7B8B9B+B/BACBCHAAAAAAAAA",
"AAAAAAGAAAqBBCCCDCEC/AYAUAZAhAfBDBACFCGCsBeAeAHCkAICHAAAAAAAAAAA",
"AAAAAAAAMAJCKChBuAdAABLCMCNCOCPCACICvAQCRCSCeAABTCUCCAAAAAAAAAAA",
"AAAABAVCWCXCWCYCZCZCWCWCaCoB0BbCcCTADACBdCeC9BfCgCHAAAAAAAAAAAAA",
"AAAAAAHA4ATATATATATATATATACAAAVCGAAAAAJACADATATAHAAAAAAAAAAAAAAA",
"AAAAGAuBhCxBGAAAAAIAAAAASBAAAABAAAAAAABAAAAASBAAAAAAAAAAAAAAJAAA",
"AAHAiCjCNCkCAAAAAAHACAEACAAAAAHACAAAHAlCAACAHAmCBADAAASBGADA+AAA",
"GA4AnCMCoC4ACAAADApC3AqCrCDAHAgCsCbCmBaAtCuCvC/BwCxCjAyClCzCjAOC",
"cBkBQCFC0C1C2CEA3C4C5CuA6C7C8C9CFCZB+CZB/CADcABDCDDDUBEDFDcAGDHD",
"YAIDJDKDLDMDoBNDODPDQDRDSDiCTDUDZBVDoAWDXDYDZDQBaDbDcDdDeDfD/BCA",
"HANDVB0CCADA4AgDcAhD1BzBiDmCCAjDuAgA4AkDIASDbAlDmDnDoDpDqDrDYCDA",
"DAtCJCsD0BCAkCQAtDuDvDGAwDCBFAxDoDyDBAGAAAdBHBdCRBzDBB4A0DdAJBHA",
"DA1DJC2DmDMASA3DfAUA4A4DgBcB5DzD8CHAAACA6DfAFDCAzCKC7DEAXB4B8DVC",
"LBjA9D+D/DRAAEBEBECE9BDEEEDAFELCGETAIADAHEhBIEDAjAJEKELEMENEOEPE",
"CAQEhBRETBCAlCSETEXAUEkBCAEA4BVEAEHAAADAWErDKAoBUBOBAAXEXAYEZEAA",
"CAoAzCoBTAAACA3BvDaEbEDACA8AcE4DBAAAAAmCdEeECArAZEfECAVC9BbETAAA",
"AACATACAAAAAAACATATACAAAAAJADAHAAAAAAAAADADAAAGATACAAABADACAAAAA",
"AAAAAAAAAAAAAAAAAAAAAAAAAAAAAAAAAAAAAAAAAAAAAAAAAAAAAAAAAAAAAAAA"
};
